<?xml version="1.0" encoding="utf-8"?>
<!-- Generator: Adobe Illustrator 16.0.0, SVG Export Plug-In . SVG Version: 6.00 Build 0)  -->
<!DOCTYPE svg PUBLIC "-//W3C//DTD SVG 1.1//EN" "http://www.w3.org/Graphics/SVG/1.1/DTD/svg11.dtd">
<svg version="1.1" id="Layer_1" xmlns="http://www.w3.org/2000/svg" xmlns:xlink="http://www.w3.org/1999/xlink" x="0px" y="0px"
	 width="24px" height="24px" viewBox="0 0 24 24" enable-background="new 0 0 24 24" xml:space="preserve">
<path fill="#666666" d="M21.167,16.985c-0.5,1.111-0.74,1.607-1.384,2.588c-0.9,1.369-2.171,3.08-3.739,3.091
	c-1.396,0.013-1.758-0.911-3.655-0.896c-1.895,0.01-2.29,0.914-3.689,0.899c-1.571-0.015-2.772-1.555-3.672-2.923
	c-2.519-3.836-2.785-8.332-1.229-10.723C4.9,7.326,6.642,6.33,8.278,6.33c1.667,0,2.714,0.914,4.091,0.914
	c1.337,0,2.152-0.916,4.08-0.916c1.456,0,2.996,0.793,4.098,2.163C16.944,10.465,17.529,15.608,21.167,16.985z M14.983,4.796
	c0.701-0.9,1.234-2.171,1.041-3.465c-1.144,0.078-2.48,0.809-3.262,1.754c-0.709,0.863-1.296,2.142-1.068,3.38
	C12.944,6.504,14.235,5.76,14.983,4.796z"/>
</svg>
